<svg width="120" height="120" viewBox="0 0 120 120" fill="none" xmlns="http://www.w3.org/2000/svg">
<g clip-path="url(#clip0_94_5)">
<rect width="120" height="120" rx="24" fill="#FBC024"/>
<path d="M80.0688 -33.5889C80.8011 -34.3211 81.988 -34.3211 82.7202 -33.5889L99.2935 -17.0166C99.8121 -16.4979 99.98 -15.7236 99.7241 -15.0361L79.147 40.2529L134.436 19.6758L134.698 19.5996C135.313 19.4676 135.963 19.6526 136.417 20.1064L152.989 36.6797C153.721 37.4119 153.721 38.5988 152.989 39.3311L100.619 91.7012C99.8864 92.4334 98.6995 92.4334 97.9673 91.7012L85.6558 79.3896C84.9239 78.6574 84.9237 77.4704 85.6558 76.7383L115.862 46.5322L70.7397 62.8027C70.0563 63.049 69.2925 62.8779 68.7788 62.3643L57.0356 50.6211C56.522 50.1074 56.3509 49.3436 56.5972 48.6602L72.8677 3.53809L42.6616 33.7441C41.9294 34.4764 40.7415 34.4764 40.0093 33.7441L27.6987 21.4326C26.9665 20.7004 26.9665 19.5135 27.6987 18.7812L80.0688 -33.5889Z" fill="#1A1F2E"/>
<path d="M19.0492 27.4302C19.7814 26.6979 20.9683 26.6979 21.7006 27.4302L34.0121 39.7407C34.7443 40.473 34.7443 41.6608 34.0121 42.3931L4.00134 72.4038L48.932 56.3267C49.6146 56.0824 50.3774 56.2535 50.89 56.7661L62.6332 68.5083C63.1458 69.0209 63.3169 69.7847 63.0726 70.4673L46.9955 115.398L77.0062 85.3872C77.7385 84.655 78.9263 84.655 79.6586 85.3872L91.9691 97.6987C92.7013 98.431 92.7013 99.6179 91.9691 100.35L39.931 152.389C39.1988 153.121 38.0109 153.121 37.2787 152.389L20.7064 135.816C20.1889 135.298 20.0193 134.527 20.2728 133.84L40.6117 78.7876L-14.441 99.1265C-15.1276 99.38 -15.8991 99.2103 -16.4166 98.6929L-32.9899 82.1206C-33.7221 81.3884 -33.7221 80.2005 -32.9899 79.4683L19.0492 27.4302Z" fill="#1A1F2E"/>
</g>
<defs>
<clipPath id="clip0_94_5">
<rect width="120" height="120" rx="24" fill="white"/>
</clipPath>
</defs>
</svg>
